<?xml version="1.0" encoding="UTF-8"?>
<svg id="Layer_1" xmlns="http://www.w3.org/2000/svg" version="1.1" viewBox="0 0 944.0753 281.9994">
  <!-- Generator: Adobe Illustrator 30.3.0, SVG Export Plug-In . SVG Version: 2.1.3 Build 182)  -->
  <g>
    <g>
      <path d="M117.0239,99.0962c-1.2957,0-2.3459,1.0503-2.3459,2.3459s1.0502,2.3458,2.3459,2.3458,2.3459-1.0503,2.3459-2.3458-1.0503-2.3459-2.3459-2.3459Z"/>
      <path d="M117.0241,72.2197c-16.1128,0-29.2217,13.1089-29.2217,29.2222s13.1089,29.2222,29.2217,29.2222,29.2217-13.1089,29.2217-29.2222-13.1089-29.2222-29.2217-29.2222ZM117.0241,129.3408c-15.3833,0-27.8984-12.5156-27.8984-27.8989s12.5151-27.8979,27.8984-27.8979,27.8984,12.5151,27.8984,27.8979-12.5151,27.8989-27.8984,27.8989Z"/>
      <path d="M117.0241,74.5054c-14.8535,0-26.9375,12.0835-26.9375,26.9365s12.084,26.9375,26.9375,26.9375,26.937-12.084,26.937-26.9375-12.084-26.9365-26.937-26.9365ZM117.0241,127.0552c-14.1235,0-25.6138-11.4902-25.6138-25.6133s11.4902-25.6133,25.6138-25.6133,25.6133,11.4902,25.6133,25.6133-11.4902,25.6133-25.6133,25.6133Z"/>
      <path d="M117.0241,69.9356c-17.3735,0-31.5073,14.1338-31.5073,31.5063s14.1338,31.5068,31.5073,31.5068,31.5063-14.1338,31.5063-31.5068-14.1338-31.5063-31.5063-31.5063ZM117.0241,131.625c-16.6431,0-30.1831-13.54-30.1831-30.1831s13.54-30.1831,30.1831-30.1831,30.1831,13.54,30.1831,30.1831-13.54,30.1831-30.1831,30.1831Z"/>
      <path d="M117.0241,67.6504c-18.6333,0-33.792,15.1587-33.792,33.7915s15.1587,33.792,33.792,33.792,33.791-15.1587,33.791-33.792-15.1587-33.7915-33.791-33.7915ZM117.0241,133.9102c-17.9028,0-32.4678-14.5654-32.4678-32.4683s14.5649-32.4678,32.4678-32.4678,32.4678,14.5649,32.4678,32.4678-14.5649,32.4683-32.4678,32.4683Z"/>
      <path d="M117.0241,81.3594c-11.0737,0-20.083,9.0088-20.083,20.0825s9.0093,20.083,20.083,20.083,20.0825-9.0093,20.0825-20.083-9.0088-20.0825-20.0825-20.0825ZM117.0241,118.187c-9.2334,0-16.7451-7.5117-16.7451-16.7446s7.5117-16.7456,16.7451-16.7456,16.7446,7.5122,16.7446,16.7456-7.5117,16.7446-16.7446,16.7446Z"/>
      <path d="M117.0241,79.0747c-12.3335,0-22.3677,10.0337-22.3677,22.3672s10.0342,22.3677,22.3677,22.3677,22.3672-10.0342,22.3672-22.3677-10.0337-22.3672-22.3672-22.3672ZM117.0241,122.4859c-11.604,0-21.0444-9.4404-21.0444-21.0439s9.4404-21.0439,21.0444-21.0439,21.0435,9.4404,21.0435,21.0439-9.4399,21.0439-21.0435,21.0439Z"/>
      <path d="M117.0241,65.3657c-19.8931,0-36.0767,16.1836-36.0767,36.0762s16.1836,36.0762,36.0767,36.0762,36.0762-16.1836,36.0762-36.0762-16.1836-36.0762-36.0762-36.0762ZM117.0241,136.1948c-19.1631,0-34.7534-15.5903-34.7534-34.7529s15.5903-34.7529,34.7534-34.7529,34.7524,15.5903,34.7524,34.7529-15.5898,34.7529-34.7524,34.7529Z"/>
      <path d="M117.0241,76.7901c-13.5933,0-24.6523,11.0586-24.6523,24.6519s11.0591,24.6528,24.6523,24.6528,24.6519-11.0591,24.6519-24.6528-11.0586-24.6519-24.6519-24.6519ZM117.0241,124.7705c-12.8638,0-23.3291-10.4653-23.3291-23.3286s10.4653-23.3281,23.3291-23.3281,23.3281,10.4648,23.3281,23.3281-10.4648,23.3286-23.3281,23.3286Z"/>
      <path d="M117.0241,63.0811c-21.1528,0-38.3613,17.2085-38.3613,38.3608s17.2085,38.3608,38.3613,38.3608,38.3608-17.2085,38.3608-38.3608-17.2085-38.3608-38.3608-38.3608ZM117.0241,138.4795c-20.4224,0-37.0376-16.6152-37.0376-37.0376s16.6152-37.0376,37.0376-37.0376,37.0376,16.6152,37.0376,37.0376-16.6152,37.0376-37.0376,37.0376Z"/>
      <path d="M117.0241,58.5113c-23.6724,0-42.9307,19.2583-42.9307,42.9307s19.2583,42.9307,42.9307,42.9307,42.9307-19.2583,42.9307-42.9307-19.2583-42.9307-42.9307-42.9307ZM117.0241,143.0493c-22.9424,0-41.6074-18.665-41.6074-41.6074s18.665-41.6069,41.6074-41.6069,41.6064,18.665,41.6064,41.6069-18.6646,41.6074-41.6064,41.6074Z"/>
      <path d="M117.0241,60.7964c-22.4126,0-40.6465,18.2334-40.6465,40.6455s18.2339,40.6465,40.6465,40.6465,40.646-18.2339,40.646-40.6465-18.2334-40.6455-40.646-40.6455ZM117.0241,140.7642c-21.6826,0-39.3228-17.6401-39.3228-39.3223s17.6401-39.3223,39.3228-39.3223,39.3218,17.6401,39.3218,39.3223-17.6396,39.3223-39.3218,39.3223Z"/>
      <path d="M159.3108,83.5567c-2.3145-5.4722-5.6191-10.3779-9.8218-14.5801-4.2017-4.2021-9.1069-7.5068-14.5796-9.8213-5.689-2.4062-11.7065-3.6265-17.8853-3.6265s-12.1963,1.2202-17.8857,3.6265c-5.4712,2.314-10.3765,5.6182-14.5801,9.8213-4.2031,4.2036-7.5073,9.1089-9.8213,14.5801-2.4062,5.6895-3.6265,11.707-3.6265,17.8857s1.2202,12.1963,3.6265,17.8853c2.314,5.4712,5.6182,10.3765,9.8213,14.5801,4.2026,4.2026,9.1079,7.5068,14.5801,9.8213,5.6875,2.4062,11.7056,3.626,17.8857,3.626s12.1982-1.2197,17.8853-3.626c5.4736-2.3154,10.3789-5.6196,14.5796-9.8213,4.2017-4.2012,7.5063-9.1064,9.8218-14.5801,2.4062-5.687,3.626-11.7046,3.626-17.8853s-1.2197-12.1982-3.626-17.8857ZM117.0241,145.3335c-24.2021,0-43.8921-19.6899-43.8921-43.8916s19.6899-43.8916,43.8921-43.8916,43.8921,19.6899,43.8921,43.8916-19.6899,43.8916-43.8921,43.8916Z"/>
    </g>
    <path d="M251.5957,58.0244h-11.9469c-2.3777,0-4.3055,1.9278-4.3055,4.3055v40.9851l-28.5378-43.3523c-.7963-1.2101-2.1477-1.9383-3.5962-1.9383h-11.0236c-2.3777,0-4.3055,1.9278-4.3055,4.3055v78.8167c0,2.3777,1.9278,4.3055,4.3055,4.3055h12.055c2.3777,0,4.3055-1.9278,4.3055-4.3055v-41.0498l28.4756,43.4111c.7955,1.2134,2.149,1.9442,3.6,1.9442h10.974c2.3777,0,4.3055-1.9278,4.3055-4.3055V62.3299c0-2.3777-1.9278-4.3055-4.3055-4.3055Z"/>
    <path d="M387.6091,108.6061c8.7678-4.3522,14.1035-13.025,13.9428-23.2072.0416-10.5737-5.0325-19.2982-13.9067-23.9292-4.3404-2.286-9.3392-3.4452-14.8569-3.4452h-30.6271c-2.3777,0-4.3055,1.9278-4.3055,4.3055v78.8167c0,2.3777,1.9278,4.3055,4.3055,4.3055h12.055c2.3777,0,4.3055-1.9278,4.3055-4.3055v-28.8317h7.9555l15.4052,30.7595c.7299,1.4573,2.22,2.3777,3.8497,2.3777h13.947c1.5044,0,2.8999-.7854,3.6803-2.0712.7808-1.2862.8338-2.886.1396-4.221l-15.89-30.5539ZM358.5217,77.3933h13.4122c.0479-.0008.0954-.0008.1425-.0008,2.8982,0,5.339.8472,6.8842,2.392,1.372,1.372,2.056,3.2792,2.0333,5.669,0,.0278,0,.0555.0004.0833.0227,2.2856-.6496,4.1276-1.9976,5.4756-1.5927,1.5914-4.1033,2.4399-7.1037,2.4206h-13.3714v-16.0397Z"/>
    <path d="M491.3033,58.0244h-50.4366c-2.3777,0-4.3055,1.9278-4.3055,4.3055v78.8167c0,2.3777,1.9278,4.3055,4.3055,4.3055h50.4366c2.3777,0,4.3055-1.9278,4.3055-4.3055v-10.757c0-2.3777-1.9278-4.3055-4.3055-4.3055h-34.0765v-15.0667h28.4541c2.3777,0,4.3055-1.9278,4.3055-4.3055v-10.6494c0-2.3777-1.9278-4.3055-4.3055-4.3055h-28.4541v-14.3637h34.0765c2.3777,0,4.3055-1.9278,4.3055-4.3055v-10.7579c0-2.3777-1.9278-4.3055-4.3055-4.3055Z"/>
    <path d="M580.6691,60.1103c-3.6824-1.3842-7.6868-2.0859-11.9024-2.0859h-29.9241c-2.3781,0-4.3055,1.9278-4.3055,4.3055v78.8167c0,2.3777,1.9274,4.3055,4.3055,4.3055h12.0546c2.3781,0,4.3055-1.9278,4.3055-4.3055v-26.6697h13.5884c5.7056,0,10.8655-1.2181,15.3182-3.6109,9.0718-4.8189,14.2586-13.789,14.2325-24.6158.1766-11.9709-6.7812-22.2368-17.6727-26.1399ZM555.2027,77.3933h12.977c.0446-.0004.0891-.0008.1345-.0008,3.0281,0,5.5938.9027,7.2353,2.548,1.512,1.5158,2.2638,3.6227,2.2343,6.2623v.0891c.0252,2.6165-.7156,4.6974-2.2015,6.1841-1.6549,1.6558-4.324,2.5417-7.4404,2.5244h-12.9392v-17.6071Z"/>
    <path d="M684.1193,58.0244h-50.4366c-2.3781,0-4.3055,1.9278-4.3055,4.3055v78.8167c0,2.3777,1.9274,4.3055,4.3055,4.3055h50.4366c2.3781,0,4.3055-1.9278,4.3055-4.3055v-10.757c0-2.3777-1.9274-4.3055-4.3055-4.3055h-34.0765v-15.0667h28.4541c2.3781,0,4.3055-1.9278,4.3055-4.3055v-10.6494c0-2.3777-1.9274-4.3055-4.3055-4.3055h-28.4541v-14.3637h34.0765c2.3781,0,4.3055-1.9278,4.3055-4.3055v-10.7579c0-2.3777-1.9274-4.3055-4.3055-4.3055Z"/>
    <path d="M764.9153,60.8478c-.6214-1.6957-2.236-2.8234-4.0423-2.8234h-9.6142c-1.8063,0-3.4209,1.1277-4.0423,2.8234l-28.8982,78.8167c-.4844,1.3207-.2926,2.7944.5121,3.9473.8056,1.1533,2.1233,1.8403,3.5302,1.8403h12.7475c1.8425,0,3.4806-1.1722,4.0751-2.9159l4.4073-12.9228h24.9509l4.4073,12.9232c.5945,1.7432,2.2326,2.9155,4.0751,2.9155h12.7475c1.4069,0,2.7246-.687,3.5302-1.8403.8048-1.1529.9965-2.6266.5121-3.9473l-28.8982-78.8167ZM762.2546,110.8391h-12.1084l6.1353-17.5003,5.973,17.5003Z"/>
    <path d="M868.8593,58.0244h-55.356c-2.3781,0-4.3055,1.9278-4.3055,4.3055v10.7579c0,2.3777,1.9274,4.3055,4.3055,4.3055h17.4263v63.7534c0,2.3777,1.9274,4.3055,4.3055,4.3055h11.9469c2.3781,0,4.3055-1.9278,4.3055-4.3055v-63.7534h17.3717c2.3781,0,4.3055-1.9278,4.3055-4.3055v-10.7579c0-2.3777-1.9274-4.3055-4.3055-4.3055Z"/>
  </g>
  <g>
    <path d="M891.6439,63.386h-.6051v-4.8025h-1.8v-.5591h4.205v.5591h-1.7999v4.8025Z"/>
    <path d="M897.1586,61.9154h-.0306l-1.9531-2.8646v4.3352h-.5898v-5.3616h.6127l1.9532,2.9259,1.9531-2.9259h.6127v5.3616h-.6051v-4.3429l-1.9532,2.8723Z"/>
  </g>
  <g>
    <path d="M337.8557,198.2962h12.4092c3.0547,0,5.4601.84,6.9874,2.3672,1.222,1.2218,1.8328,2.711,1.8328,4.5437v.0765c0,3.0164-1.6037,4.6963-3.5127,5.7655,3.0927,1.1836,5.0019,2.9782,5.0019,6.5674v.0763c0,4.8873-3.9711,7.331-10.0038,7.331h-12.7148v-26.7276ZM353.2433,206.1998c0-1.7564-1.3746-2.7491-3.8565-2.7491h-5.8036v5.651h5.4219c2.5963,0,4.2383-.84,4.2383-2.8254v-.0765ZM350.3795,213.989h-6.7963v5.8801h6.9874c2.5963,0,4.1618-.9163,4.1618-2.9017v-.0765c0-1.7946-1.3364-2.9019-4.3528-2.9019Z"/>
    <path d="M388.5663,198.2962h20.1604v5.231h-14.3184v5.4219h12.6001v5.231h-12.6001v5.6127h14.5092v5.231h-20.3512v-26.7276Z"/>
    <path d="M445.4556,198.1051h5.422l11.4546,26.9186h-6.1473l-2.4437-5.9946h-11.3019l-2.4437,5.9946h-5.9946l11.4546-26.9186ZM451.6411,213.8364l-3.551-8.6674-3.551,8.6674h7.1019Z"/>
    <path d="M484.2318,213.569v-15.2729h5.8802v15.1201c0,4.3528,2.1763,6.6056,5.7655,6.6056s5.7654-2.1763,5.7654-6.4146v-15.3111h5.8802v15.082c0,8.0946-4.5438,12.0656-11.7221,12.0656s-11.5693-4.0092-11.5693-11.8747Z"/>
    <path d="M540.8847,203.718h-8.133v-5.4219h22.1457v5.4219h-8.1327v21.3057h-5.8799v-21.3057Z"/>
    <path d="M590.0685,214.4854l-10.2711-16.1893h6.8728l6.3764,10.7292,6.4911-10.7292h6.6819l-10.2711,16.0747v10.6529h-5.8799v-10.5383Z"/>
  </g>
</svg>